<?xml version="1.0" encoding="UTF-8" standalone="no"?><!DOCTYPE svg PUBLIC "-//W3C//DTD SVG 1.1//EN" "http://www.w3.org/Graphics/SVG/1.1/DTD/svg11.dtd"><svg width="1739px" height="1051px" version="1.1" xmlns="http://www.w3.org/2000/svg" xmlns:xlink="http://www.w3.org/1999/xlink" xml:space="preserve" xmlns:serif="http://www.serif.com/" style="fill-rule:evenodd;clip-rule:evenodd;stroke-linejoin:round;stroke-miterlimit:2;"><g id="Nobu-masked-indexed.png" serif:id="Nobu masked indexed.png" transform="matrix(1.685547,0,0,1.685547,0,0)"><path d="M902,0L926,-0C927,0 927,2 928,4C925,9 908,32 919,43C920,56 951,43 953,42C955,43 955,43 956,43C957,44 967,51 974,47C980,43 968,45 967,38C982,36 982,32 988,35C972,54 969,51 956,71C946,88 932,86 937,107C938,108 939,114 928,121C926,129 929,129 926,137C925,142 927,142 929,150C927,156 933,154 932,159C931,172 925,169 925,174C928,187 918,181 913,185C910,187 911,187 909,189C895,179 888,189 881,178C878,173 873,179 867,176C859,173 860,178 857,180C854,182 842,174 845,187C846,193 831,184 836,191C838,192 845,194 848,202C849,207 847,208 843,205C845,199 842,200 830,188C820,180 841,187 841,182C842,176 844,176 851,177C856,178 854,173 858,171C863,168 861,165 866,166C881,169 882,172 883,173C892,185 897,173 902,178C909,184 910,183 919,181C926,178 920,173 922,171C929,162 924,154 923,149C919,132 924,132 924,130C920,122 926,119 931,110C933,107 914,95 910,101C902,110 914,113 905,129C902,134 898,130 896,134C891,145 883,133 883,132C885,118 897,103 899,101C902,98 895,84 916,86C925,95 926,94 927,93C930,90 925,85 934,81C941,78 939,75 947,75C951,75 960,60 946,63C941,65 941,63 935,61C935,61 931,63 929,59C927,56 926,49 921,51C919,51 908,54 903,57C890,59 888,66 877,58C873,55 863,56 863,61C862,68 858,65 850,66C831,69 825,61 818,64C812,67 797,93 796,96C794,102 792,100 789,106C784,117 782,115 777,126C771,139 774,139 773,140C771,144 770,143 768,147C767,149 766,151 748,164C743,162 745,167 739,170C710,179 714,186 701,189C678,193 680,200 681,200C689,199 689,200 697,198C704,196 709,194 707,202C707,203 708,202 713,213C717,220 717,220 714,228C710,235 720,235 723,243C725,249 735,256 734,246C736,241 733,241 733,236C733,233 740,230 741,230C746,227 748,234 752,229C764,227 771,263 776,243C777,243 786,240 781,254C779,256 779,259 779,260C777,268 781,268 781,269C778,286 785,287 778,304C777,307 779,307 777,309C772,305 777,302 771,298C754,285 785,276 770,255C770,254 769,251 769,251C764,246 765,245 760,240C740,214 757,253 757,254L759,254C762,261 762,261 761,262C761,263 761,262 762,264L762,266L762,267C762,269 761,269 763,271C761,278 765,279 758,283C756,285 756,286 756,286C755,287 755,288 754,288C755,290 754,292 754,293C754,295 756,295 756,296C755,310 756,327 753,314C752,307 754,306 749,301C749,299 749,299 748,297C747,287 750,286 743,279C738,276 745,258 734,261C729,263 735,273 727,272C718,269 718,272 718,272C719,277 721,276 722,280C722,281 721,281 718,290C719,291 719,290 720,292C723,297 725,291 731,292C739,292 733,297 736,304L738,304C739,307 738,307 739,307C739,308 739,308 739,309L740,310L740,311C740,311 741,311 742,312C743,317 742,317 739,321C739,323 739,323 738,331C737,334 736,334 739,338C733,345 739,347 735,357C734,362 739,359 741,363C742,363 740,363 741,373C741,374 736,384 739,394C739,395 737,414 723,411C721,411 712,427 707,417C706,413 713,411 715,404C717,400 716,400 716,398C719,395 722,393 721,390C719,388 721,388 720,386C717,376 726,353 726,350C722,335 720,331 717,329C715,327 714,328 704,351C707,359 707,359 707,360C707,362 703,369 702,370C699,381 701,381 698,392C698,392 688,418 684,392C682,385 677,392 676,396C670,408 663,429 662,413C661,405 661,405 664,398C664,397 664,397 664,396C672,382 681,380 672,373C671,373 665,362 674,366C677,368 690,357 680,352C678,350 683,336 673,342C668,345 670,346 669,350C667,354 660,353 662,364C668,387 650,386 654,397C652,402 656,407 651,415C650,417 650,417 650,419C649,420 648,420 648,421L649,424C648,425 643,436 642,429C641,424 641,424 639,420C637,418 637,411 636,410C630,395 632,424 622,430C617,433 625,446 616,451C615,452 603,448 594,455C588,460 587,459 581,454C574,447 583,469 573,466C573,465 561,462 569,475C569,475 570,482 571,485C565,490 562,490 559,483C554,468 537,490 538,497C538,507 536,506 531,514C523,530 518,523 510,521C505,519 506,531 499,528C492,524 487,527 486,525C473,511 469,513 462,512C453,511 428,491 426,486C413,463 412,464 411,462C410,453 405,456 403,450C399,437 394,440 391,441C391,440 390,440 389,440C389,439 385,436 381,438C376,439 378,440 377,445C377,447 356,454 352,445C352,444 354,430 349,427C349,427 345,424 344,423C340,415 339,416 330,417C330,418 329,418 328,418C324,421 325,422 320,425C312,430 312,430 306,437C304,438 305,437 304,439C303,439 303,439 303,440C302,441 301,441 301,442C297,444 293,446 293,447C292,448 292,448 291,449C290,449 290,449 290,450C290,450 289,451 288,452C287,452 287,452 287,453C286,454 285,455 285,455C284,456 283,456 283,457C282,457 281,457 281,458C280,458 280,458 273,460C273,461 272,461 272,462C271,462 271,462 264,469C262,469 263,469 261,470C256,473 256,471 251,474C251,475 250,475 249,475C246,476 234,470 220,482C220,483 219,483 219,484C218,484 218,484 218,485C210,494 208,491 200,500C199,500 199,501 198,501C198,502 189,505 186,506C186,507 185,507 184,507C184,508 180,511 177,510C172,510 162,518 153,521C152,520 150,514 150,511C153,499 154,498 155,497C156,494 151,493 150,492C149,487 160,481 161,481C174,474 174,475 175,474C183,470 180,468 181,457C182,451 193,453 193,450C192,446 194,444 197,447C205,453 206,440 213,442C217,444 226,437 225,435C222,425 232,429 237,430C240,431 233,437 238,436C245,433 245,439 250,435C256,432 252,430 246,428C239,426 253,421 248,413C245,409 249,410 255,409C259,408 259,409 263,412C263,413 265,414 267,408C270,399 286,391 290,392C299,395 300,392 305,378C308,367 324,375 319,370C313,363 331,356 335,363C338,370 345,359 346,363C348,371 357,374 353,382C350,389 352,389 353,396C355,406 370,407 365,421C361,434 372,434 376,429C380,425 381,426 384,426C385,425 385,425 396,417C400,413 413,424 415,415C415,413 407,403 414,400C421,398 424,407 431,400C435,395 438,399 441,397C448,391 446,390 443,387C437,381 445,379 444,370C443,368 448,367 447,362C446,353 452,357 452,360C452,361 448,371 454,369C455,368 461,355 474,366C478,371 476,373 481,377C486,380 488,367 488,366C490,358 493,367 506,369C509,370 508,380 520,382C525,383 526,384 527,382C530,380 537,383 537,384C538,384 536,384 538,394C539,398 527,397 533,401C537,405 539,401 543,406C544,408 549,405 550,405C542,404 545,401 549,395C550,393 561,394 557,387C553,380 566,379 566,372C566,371 550,377 555,369C555,368 562,366 559,362C553,354 542,367 542,359C541,353 540,354 539,354C525,361 526,350 530,349C532,348 540,345 540,341C540,333 538,332 544,328C556,318 527,325 524,317C523,311 524,310 518,308C515,306 509,302 511,310C511,311 507,320 505,311C505,306 489,311 495,306C507,296 510,303 519,297C525,294 533,291 523,287C516,283 516,289 505,287C504,287 496,289 494,290C489,292 495,314 480,306C474,303 477,300 464,294C458,292 462,290 464,287C476,285 476,284 488,284C493,284 491,270 501,278C502,278 519,275 519,275C527,270 518,263 519,261C528,249 514,256 499,258C487,260 514,260 512,267C508,278 496,265 485,269C483,270 472,267 468,272C455,284 450,281 448,281C433,280 436,289 424,292C415,294 413,298 411,298C410,298 409,298 408,299C402,300 403,298 401,297C411,292 410,291 420,287C430,284 446,265 465,266C467,266 468,267 489,258C498,254 505,249 506,248C514,252 542,237 545,235C552,229 558,237 572,224C576,221 586,225 589,219C594,211 598,217 606,212C628,201 636,208 640,204C649,198 658,202 662,196C667,189 681,199 677,187C690,184 689,181 697,179C697,179 710,178 719,173C726,170 727,170 733,166C740,162 739,161 748,155C749,155 749,157 750,157C754,156 757,150 760,150C764,149 763,147 766,145C766,143 766,143 767,141C776,135 772,126 771,125C782,117 778,114 791,86C797,75 792,70 806,58C818,47 822,38 840,32C848,30 845,26 853,23C862,20 862,20 870,18C872,18 872,16 893,5C898,2 898,3 902,0Z" style="fill:rgb(99,89,88);fill-opacity:1;"/><path d="M448,281C450,281 455,284 468,272C472,267 483,270 485,269C496,265 508,278 512,267C514,260 487,260 499,258C514,256 528,249 519,261C518,263 527,270 519,275C519,275 502,278 501,278C491,270 493,284 488,284C476,284 476,285 464,287C462,290 458,292 464,294C477,300 474,303 480,306C495,314 489,292 494,290C496,289 504,287 505,287C516,289 516,283 523,287C533,291 525,294 519,297C510,303 507,296 495,306C489,311 505,306 505,311C507,320 511,311 511,310C509,302 515,306 518,308C524,310 523,311 524,317C527,325 556,318 544,328C538,332 540,333 540,341C540,345 532,348 530,349C526,350 525,361 539,354C540,354 541,353 542,359C542,367 553,354 559,362C562,366 555,368 555,369C550,377 566,371 566,372C566,379 553,380 557,387C561,394 550,393 549,395C545,401 542,404 550,405C549,405 544,408 543,406C539,401 537,405 533,401C527,397 539,398 538,394C536,384 538,384 537,384C537,383 530,380 527,382C526,384 525,383 520,382C508,380 509,370 506,369C493,367 490,358 488,366C488,367 486,380 481,377C476,373 478,371 474,366C461,355 455,368 454,369C448,371 452,361 452,360C452,357 446,353 447,362C448,367 443,368 444,370C445,379 437,381 443,387C446,390 448,391 441,397C438,399 435,395 431,400C424,407 421,398 414,400C407,403 415,413 415,415C413,424 400,413 396,417C385,425 385,425 384,426C381,426 380,425 376,429C372,434 361,434 365,421C370,407 355,406 353,396C352,389 350,389 353,382C357,374 348,371 346,363C345,359 338,370 335,363C331,356 313,363 319,370C324,375 308,367 305,378C300,392 299,395 290,392C286,391 270,399 267,408C265,414 263,413 263,412C259,409 259,408 255,409C249,410 245,409 248,413C253,421 239,426 246,428C252,430 256,432 250,435C245,439 245,433 238,436C233,437 240,431 237,430C232,429 222,425 225,435C226,437 217,444 213,442C206,440 205,453 197,447C194,444 192,446 193,450C193,453 182,451 181,457C180,468 183,470 175,474C174,475 174,474 161,481C160,481 149,487 150,492C151,493 156,494 155,497C154,498 153,499 150,511C150,514 152,520 153,521C143,529 143,528 142,528C139,529 139,528 136,528C138,519 153,505 141,509C136,510 129,511 134,501C138,492 151,482 143,479C140,478 128,489 130,480C131,476 147,468 138,468C130,468 132,473 122,481L120,480C121,478 122,479 123,477C125,475 126,470 126,468C134,465 136,466 138,457C139,455 141,453 142,453C144,453 162,446 163,446C164,441 167,443 171,440C172,439 172,439 174,439C190,431 190,431 191,426C199,422 199,421 205,413C209,408 257,384 261,382C265,380 273,371 276,370C278,369 307,357 312,351C313,351 315,355 321,350C333,343 334,345 346,337C351,333 356,338 360,336C363,335 355,330 361,326C372,318 376,319 379,321C389,328 390,323 401,318C407,316 380,316 379,314C377,313 377,309 403,305C415,303 413,298 425,295C426,295 441,286 441,286C444,283 444,283 448,281Z" style="fill:rgb(63,53,54);fill-opacity:1;"/><path d="M909,189C905,192 878,188 871,193C870,194 858,191 862,204C864,211 863,212 865,215C861,221 868,229 863,225C854,218 863,230 859,241C858,244 859,244 860,247L860,248C860,248 860,249 860,249C857,256 862,257 858,264C856,266 861,270 857,274C852,280 860,283 854,288C848,293 852,295 851,300C848,309 828,306 838,320C846,334 830,330 829,338C827,362 817,348 816,347C809,337 810,361 819,363C822,364 824,358 827,359C835,359 841,355 838,362C837,365 832,368 832,369C832,369 834,369 834,370C831,373 831,373 830,377C824,381 826,384 820,383C819,383 806,382 811,394C812,399 818,399 818,399C821,401 821,401 822,405C820,412 820,412 814,416C807,414 804,427 805,430C806,431 825,436 812,442C812,442 812,443 811,443C811,445 811,445 810,446C805,448 804,449 804,454C804,456 800,460 804,463C808,467 820,472 808,481C802,486 803,489 794,488C784,487 792,506 791,511C791,514 799,539 804,541C805,541 805,539 806,539C811,545 813,542 818,548C794,544 793,541 791,531C790,524 787,525 786,523C780,506 781,506 780,505C776,497 782,495 777,488C771,480 768,460 764,451C765,451 765,450 766,449C769,449 769,466 778,462C788,455 788,454 788,453C786,445 782,449 775,448C768,447 776,437 782,443C789,449 790,447 798,443C800,443 806,445 806,442C807,434 800,432 799,431C789,414 815,408 807,404C799,401 794,402 792,403C790,399 788,399 787,401C780,405 780,402 772,398C771,397 771,398 771,397C768,386 758,394 757,394C755,395 755,395 754,398C749,400 745,403 746,412C741,412 741,413 736,415L734,415C728,418 728,418 722,420C722,421 721,421 721,422C720,422 715,424 712,425C712,426 711,426 711,427C710,427 710,427 709,427C709,428 708,428 708,429C700,432 700,429 686,431C682,427 685,426 683,421C688,413 685,406 684,405C682,400 683,391 676,396C677,392 682,385 684,392C688,418 698,392 698,392C701,381 699,381 702,370C703,369 707,362 707,360C707,359 707,359 704,351C714,328 715,327 717,329C720,331 722,335 726,350C726,353 717,376 720,386C721,388 719,388 721,390C722,393 719,395 716,398C716,400 717,400 715,404C713,411 706,413 707,417C712,427 721,411 723,411C737,414 739,395 739,394C736,384 741,374 741,373C740,363 742,363 741,363C739,359 734,362 735,357C739,347 733,345 739,338C741,333 740,333 738,331C739,323 739,323 739,321C742,317 743,317 742,312C741,311 740,311 740,311L740,310C740,309 740,309 739,309C739,308 739,308 739,307C738,307 739,307 738,304C737,304 737,304 736,304C733,297 739,292 731,292C725,291 723,297 720,292C719,290 719,291 718,290C721,281 722,281 722,280C721,276 719,277 718,272C718,272 718,269 727,272C735,273 729,263 734,261C745,258 738,276 743,279C750,286 747,287 748,297C749,299 749,299 749,301C754,306 752,307 753,314C756,327 755,310 756,296C756,295 754,295 754,293C754,292 755,290 754,288C755,288 755,287 756,286C756,286 756,285 758,283C765,279 761,278 763,271C763,269 763,268 762,267L762,266C762,265 762,265 762,264C761,262 761,263 761,262C762,261 762,261 759,254C758,254 758,254 757,254C757,253 740,214 760,240C765,245 764,246 769,251C769,251 770,254 770,255C785,276 754,285 771,298C777,302 772,305 777,309L778,311C786,322 785,309 786,308C791,290 781,273 790,275C801,278 789,259 797,254C806,247 799,241 799,234C798,227 798,227 794,221C795,210 802,218 804,218C831,215 827,231 839,232C862,234 836,224 835,219C835,213 835,213 831,208C823,198 841,206 842,207C842,206 843,206 843,205C847,208 849,207 848,202C845,194 838,192 836,191C831,184 846,193 845,187C842,174 854,182 857,180C860,178 859,173 867,176C873,179 878,173 881,178C888,189 895,179 909,189Z" style="fill:rgb(107,98,96);fill-opacity:1;"/><path d="M903,57C909,62 910,56 917,59C918,60 923,54 924,59C926,65 928,67 921,68C921,69 921,69 918,76C917,80 923,84 915,85L914,84C915,78 906,83 904,80C901,77 902,74 898,76C898,76 893,74 894,80C896,87 893,88 894,95C892,103 891,102 887,109C885,114 882,113 882,119C881,121 867,139 889,154L889,155C886,166 886,174 882,168C878,161 878,159 870,160C869,159 869,159 869,159C863,154 862,157 857,153C852,150 860,160 858,166C856,166 856,166 854,165L854,164L854,163C852,157 851,156 845,159C839,162 851,168 842,172C841,172 833,178 829,175C828,173 822,171 822,180C823,182 823,186 810,191C800,175 785,183 779,174C764,152 742,183 745,170C745,169 746,170 748,164C766,151 767,149 768,147C770,143 771,144 773,140C774,139 771,139 777,126C782,115 784,117 789,106C792,100 794,102 796,96C797,93 812,67 818,64C825,61 831,69 850,66C858,65 862,68 863,61C863,56 873,55 877,58C888,66 890,59 903,57Z" style="fill:rgb(44,34,33);"/><path d="M914,84L915,85L916,86C895,84 902,98 899,101C897,103 885,118 883,132C883,133 891,145 896,134C898,130 902,134 905,129C914,113 902,110 910,101C914,95 933,107 931,110C926,119 920,122 924,130C924,132 919,132 923,149C924,154 929,162 922,171C920,173 926,178 919,181C910,183 909,184 902,178C897,173 892,185 883,173C882,172 881,169 866,166C861,165 863,168 858,171C854,173 856,178 851,177C844,176 842,176 841,182C841,187 820,180 830,188C842,200 845,199 843,205C843,206 842,206 842,207C841,206 823,198 831,208C835,213 835,213 835,219C836,224 862,234 839,232C827,231 831,215 804,218C802,218 795,210 794,221C789,218 788,218 788,218C786,212 787,211 784,210C777,206 775,206 772,214C767,212 765,214 768,218C770,224 773,223 776,217C780,224 780,226 780,227C782,230 799,234 788,247C785,251 788,252 784,260C782,264 783,264 781,269C781,268 777,268 779,260C779,259 779,256 781,254C786,240 777,243 776,243C771,263 764,227 752,229C749,228 747,225 746,225C738,224 740,219 737,218C720,207 732,227 732,229C729,237 729,238 734,246C735,256 725,249 723,243C720,235 710,235 714,228C717,220 717,220 713,213C708,202 707,203 707,202C709,194 704,196 697,198C689,200 689,199 681,200C680,200 678,193 701,189C714,186 710,179 739,170C745,167 743,162 748,164C746,170 745,169 745,170C742,183 764,152 779,174C785,183 800,175 810,191C815,192 815,189 818,190C823,190 828,194 826,188C826,188 823,180 829,179C833,177 836,186 839,178C840,172 850,177 848,166C847,156 851,167 852,167C852,167 852,167 854,165C856,166 856,166 858,166C862,165 861,161 864,162C868,162 868,163 870,160C878,159 878,161 882,168C886,174 886,166 889,155L889,156C889,155 889,155 889,154C867,139 881,121 882,119C882,113 885,114 887,109C891,102 892,103 894,95C899,94 897,84 901,83C913,82 913,83 914,84Z" style="fill:rgb(76,65,64);"/><path d="M650,419C654,417 655,418 656,414C658,411 657,411 657,410C660,408 658,412 659,416C660,417 661,418 661,420C663,425 663,425 663,432C663,432 662,440 665,440C673,438 663,426 669,422C675,418 673,404 676,400C684,391 681,415 683,421C685,426 682,427 686,431C683,433 683,433 683,433C682,432 682,432 681,430C676,418 674,431 674,432C673,437 671,438 675,440C670,444 667,441 662,447C661,445 662,445 661,443C656,435 660,435 659,429C658,424 655,426 654,432C653,444 649,443 648,454L646,455C639,453 639,456 629,458C629,459 625,462 632,463C633,463 633,463 636,465C634,467 628,472 621,473C615,466 614,466 607,470C602,474 594,463 590,472C587,478 587,478 581,480C576,481 580,502 567,499C553,495 549,497 549,512C549,512 549,517 558,514C559,513 558,514 560,515C559,522 568,523 573,524C574,534 569,533 570,543C571,551 571,553 580,554C584,555 587,562 590,560C596,558 595,558 598,558C597,566 593,563 587,568C585,567 585,567 584,566C581,563 585,557 577,559C576,559 577,560 576,561C575,561 574,562 574,563C570,565 571,565 569,568C563,568 563,568 563,568C552,571 525,570 514,573C513,572 511,565 515,558C519,552 530,560 546,558C558,557 564,567 566,555C566,550 559,549 557,545C548,531 545,534 511,534C493,534 496,542 497,560C497,561 497,561 498,573C489,571 489,572 478,572C477,567 477,567 476,567C472,563 467,564 469,549C471,540 467,540 466,531C466,526 447,537 440,532C433,527 430,530 428,523C425,511 434,516 436,514C446,506 447,511 455,514C460,516 471,512 472,522C473,526 480,525 480,529C481,538 486,531 490,530C495,527 495,534 504,531C517,526 521,529 524,527C529,526 542,502 542,500C546,478 557,483 558,484C559,484 572,501 571,485C570,482 569,475 569,475C571,469 571,468 577,470C585,474 579,460 585,461C593,462 592,459 605,456C610,455 615,463 623,449C625,444 622,424 632,440C636,448 650,445 649,424L648,421C649,421 650,420 650,419Z" style="fill:rgb(165,162,154);fill-opacity:1;"/><path d="M389,440C380,442 387,447 391,447C391,447 406,446 391,441C394,440 399,437 403,450C405,456 410,453 411,462C412,464 413,463 426,486C428,491 453,511 462,512C469,513 473,511 486,525C487,527 492,524 499,528C506,531 505,519 510,521C518,523 523,530 531,514C536,506 538,507 538,497C537,490 554,468 559,483C562,490 565,490 571,485C572,501 559,484 558,484C557,483 546,478 542,500C542,502 529,526 524,527C521,529 517,526 504,531C495,534 495,527 490,530C486,531 481,538 480,529C480,525 473,526 472,522C471,512 460,516 455,514C447,511 446,506 436,514C434,516 425,511 428,523C430,530 433,527 440,532C447,537 466,526 466,531C467,540 471,540 469,549C467,564 472,563 476,567C477,567 477,567 478,572C472,571 460,567 452,566C458,560 439,561 443,550C444,545 462,543 452,543C450,543 438,544 436,542C424,535 424,535 423,535C418,529 417,529 409,533C408,531 408,531 406,530C413,517 391,521 396,507C399,501 399,501 397,494C395,490 399,487 395,484C390,478 394,475 387,471C383,469 383,455 380,455C371,453 363,473 376,469C389,466 365,487 375,495C381,501 379,502 381,510C385,527 381,527 380,526C378,526 376,521 371,521C369,520 361,517 362,523C365,530 366,530 364,538C364,540 367,540 364,561C364,561 366,585 374,592C379,595 377,597 385,602C388,604 388,604 391,606C390,606 390,608 389,608C389,608 388,607 388,606C378,601 378,601 378,600C365,586 367,585 365,579C355,558 363,553 362,549C358,530 360,530 357,511C357,511 354,496 363,507C375,521 382,503 374,500C365,496 365,492 361,481C355,470 351,469 345,460C350,454 352,446 352,445C356,454 377,447 377,445C378,440 376,439 381,438C385,436 389,439 389,440Z" style="fill:rgb(145,138,131);fill-opacity:1;"/><path d="M47,517C47,517 47,519 49,518C74,509 73,508 76,507C103,499 114,483 117,489C122,497 120,499 112,504C98,511 99,511 88,521C83,524 86,528 85,530C83,537 88,535 90,542C71,546 55,555 52,556C48,559 38,557 31,561C21,567 22,568 11,572C-2,560 19,547 19,534L21,533C24,535 25,535 27,532C28,530 29,527 29,527L32,525C42,529 44,521 45,518L47,517Z" style="fill-opacity:1;"/><path d="M868,324C863,331 863,342 855,348C852,350 853,356 852,360C851,361 852,361 852,363C850,364 849,366 849,367C848,367 848,368 847,368C844,376 843,375 843,376C842,377 839,384 832,396C824,409 825,439 825,439C825,440 825,440 826,441L826,446C814,450 824,462 828,455C831,467 828,480 827,482C823,481 813,493 828,495C829,499 829,499 832,502C830,508 836,515 830,519C828,521 814,529 820,534C823,536 830,531 836,535C842,539 839,549 838,550C832,549 829,549 829,550C823,543 808,541 807,535C804,520 789,504 799,502C808,501 808,499 811,491C812,486 817,483 818,481C820,471 824,470 817,463C802,450 821,443 821,438C820,431 816,431 815,429C805,417 833,412 822,405C821,401 821,401 818,399C813,390 813,388 820,383C826,384 824,381 830,377C836,374 834,370 834,369C839,366 845,365 840,356C839,352 824,358 831,346C836,352 838,349 843,355C849,364 850,348 852,346C867,338 856,327 868,324Z" style="fill:rgb(163,160,152);fill-opacity:0.99;"/><path d="M397,536C397,546 395,547 401,555C405,561 410,564 411,564C411,570 413,572 421,568C424,569 461,597 433,605C422,608 425,615 411,616C408,607 404,611 397,606C384,596 382,597 375,576C371,568 380,564 380,558C380,557 380,555 380,553C382,544 386,546 388,539C390,535 392,537 397,536Z" style="fill:rgb(189,193,185);fill-opacity:0.99;"/><path d="M885,285C889,288 898,285 900,285C905,283 906,287 913,285C913,293 913,293 912,293C912,303 920,293 926,290C931,286 931,291 931,298C931,302 937,300 937,296C937,296 936,291 939,290C949,288 946,300 958,299C965,298 975,325 980,307C981,302 977,305 973,307C967,309 969,292 978,299C981,301 981,302 985,300C998,293 1006,308 1012,313C1018,317 1014,323 1017,329C1013,332 1013,332 1010,335C1007,333 1006,333 1006,332C1006,331 1008,332 1008,330C1009,329 1016,323 1012,317C1011,317 1010,318 1003,310C992,297 981,312 981,312C981,313 982,313 982,314C980,316 980,315 978,317C978,318 977,318 977,319C976,318 976,319 969,317C969,316 968,315 968,314C967,313 963,305 956,306C950,306 950,305 945,302C939,298 936,324 929,307L929,306C928,300 925,297 923,300C918,303 919,304 914,306C910,307 910,326 916,330C917,332 917,332 917,333C917,334 918,335 918,336C918,341 917,342 917,343C916,343 906,345 905,345C901,346 901,345 895,348C894,348 894,348 893,349L888,348C888,348 885,344 885,336C885,334 885,334 888,316C888,315 890,316 889,309L889,306C889,301 887,302 886,301C886,294 883,294 885,285Z" style="fill:rgb(164,161,153);fill-opacity:1;"/><path d="M406,530C400,528 397,535 397,536C392,537 390,535 388,539C386,546 382,544 380,553C380,555 380,557 380,558C380,564 371,568 375,576C382,597 384,596 397,606C404,611 408,607 411,616C402,615 403,614 393,612C393,609 392,609 391,606C388,604 388,604 385,602C377,597 379,595 374,592C366,585 364,561 364,561C367,540 364,540 364,538C366,530 365,530 362,523C361,517 369,520 371,521C376,521 378,526 380,526C381,527 385,527 381,510C379,502 381,501 375,495C365,487 389,466 376,469C363,473 371,453 380,455C383,455 383,469 387,471C394,475 390,478 395,484C399,487 395,490 397,494C399,501 399,501 396,507C391,521 413,517 406,530Z" style="fill:rgb(163,160,152);fill-opacity:1;"/><path d="M988,35C995,42 990,45 989,50C988,50 988,51 988,52C986,53 970,60 969,62C967,62 967,62 966,64C965,65 965,66 965,68C962,77 956,76 959,85C958,88 958,88 957,91C956,99 946,117 963,108C964,113 964,130 963,133C956,143 970,155 966,171C958,173 964,177 957,186C950,194 957,200 952,206C949,200 952,199 947,194C948,193 951,185 952,182C953,173 958,174 956,167C958,158 962,155 957,149C954,146 956,143 957,140C959,130 949,134 949,134C945,134 942,132 938,143C935,150 928,146 930,139C932,127 931,126 928,121C939,114 938,108 937,107C932,86 946,88 956,71C969,51 972,54 988,35Z" style="fill:rgb(153,148,141);fill-opacity:0.99;"/><path d="M896,200C895,201 895,201 895,201C879,219 883,236 883,242C882,243 882,244 882,245C876,240 880,237 879,230C879,228 878,226 878,224C876,217 884,204 880,204C871,206 870,207 870,212C869,225 873,224 874,238C875,243 864,242 867,253C872,267 872,267 870,275C866,292 882,276 883,276C883,277 883,279 883,281C874,290 877,291 877,305C876,310 876,310 875,316C874,317 874,317 874,318C874,319 873,319 872,319C873,320 873,320 873,321C872,322 869,324 868,324C856,327 867,338 852,346C850,348 849,364 843,355C838,349 836,352 831,346L831,343C834,340 836,337 837,337C840,333 840,333 844,331C851,325 847,322 854,317C860,312 855,305 855,304C855,304 856,299 856,298C855,291 858,292 862,290C867,288 862,280 863,276C865,272 864,272 865,267C868,260 866,260 863,253C862,250 862,250 860,248L860,247C864,240 860,235 865,234C874,230 867,227 867,216C867,216 867,212 865,208C868,202 869,202 869,202C889,199 890,195 896,200Z" style="fill:rgb(166,164,156);fill-opacity:0.99;"/><path d="M120,480L122,481C126,483 128,483 127,488C127,490 135,494 132,500C122,515 138,511 139,513C139,517 133,522 132,523C127,528 125,525 120,530C120,530 110,533 109,533C99,535 100,539 90,542C88,535 83,537 85,530C86,528 83,524 88,521C99,511 98,511 112,504C120,499 122,497 117,489C114,483 103,499 76,507C73,508 74,509 49,518C47,519 47,517 47,517C58,508 60,508 61,508C61,508 63,512 69,507C76,502 77,505 84,500C88,497 89,499 92,495C96,492 102,491 107,488C107,487 108,486 108,485C114,482 114,483 120,480Z" style="fill:rgb(38,28,27);fill-opacity:1;"/><path d="M683,327C681,319 682,318 676,313C675,313 676,313 671,309C668,304 672,302 666,297C658,291 664,278 652,282C648,283 653,274 648,272C626,266 629,261 630,260C634,255 632,254 637,250C643,246 623,237 634,234C639,233 634,242 638,242C646,242 645,245 653,247C660,249 653,265 668,275C678,280 675,282 681,296C682,299 679,302 682,304C685,307 684,308 683,313C682,313 682,314 689,321C690,323 695,323 695,326C695,332 698,332 695,337C695,338 696,338 696,350C696,350 701,360 696,362C693,364 686,342 686,341C686,336 684,336 685,330C685,330 685,330 683,327Z" style="fill:rgb(68,59,60);"/><path d="M498,573C497,561 497,561 497,560C496,542 493,534 511,534C545,534 548,531 557,545C559,549 566,550 566,555C564,567 558,557 546,558C530,560 519,552 515,558C511,565 513,572 514,573C509,573 503,573 498,573Z" style="fill:rgb(189,193,185);"/><path d="M757,394C760,395 771,398 772,398C780,402 780,405 787,401C788,399 790,399 792,403C794,404 813,406 796,412C794,413 788,410 786,411C785,412 785,413 784,414C784,415 775,414 779,418C781,420 787,418 788,422C789,424 792,435 799,431C800,432 807,434 806,442C806,445 800,443 798,443C790,447 789,449 782,443C776,437 768,447 775,448C782,449 786,445 788,453C788,454 788,455 778,462C769,466 769,449 766,449C765,450 765,451 764,451C759,436 760,436 755,422C757,422 757,423 762,422C763,421 773,412 774,412C777,400 762,396 754,398C755,395 755,395 757,394Z" style="fill:rgb(59,50,51);fill-opacity:1;"/><path d="M938,143C942,132 945,134 949,134C949,134 959,130 957,140C956,143 954,146 957,149C962,155 958,158 956,167C950,174 948,171 939,175C930,177 937,186 938,186C938,187 938,187 940,192C934,193 926,191 922,192C921,192 921,192 920,193C911,193 911,194 903,196C900,195 900,194 897,194C897,194 864,195 864,204C864,204 865,204 865,208C867,212 867,216 867,216L865,215C863,212 864,211 862,204C858,191 870,194 871,193C878,188 905,192 909,189C911,187 910,187 913,185C918,181 928,187 925,174C925,169 931,172 932,159C933,154 927,156 929,150C934,155 938,150 938,143Z" style="fill:rgb(125,117,112);fill-opacity:1;"/><path d="M913,285C924,284 923,287 934,287C977,289 996,281 1009,291C1031,311 1023,321 1017,329C1014,323 1018,317 1012,313C1006,308 998,293 985,300C981,302 981,301 978,299C969,292 967,309 973,307C977,305 981,302 980,307C975,325 965,298 958,299C946,300 949,288 939,290C936,291 937,296 937,296C937,300 931,302 931,298C931,291 931,286 926,290C920,293 912,303 912,293C913,293 913,293 913,285Z" style="fill:rgb(189,193,185);fill-opacity:0.99;"/><path d="M929,306L929,307C929,308 927,308 927,309C928,321 936,319 942,309C945,304 948,311 953,310C954,310 962,310 965,314C967,316 968,314 968,314C968,315 969,316 969,317C967,322 974,321 972,327C970,332 967,333 966,339C957,337 944,339 943,340C942,339 941,337 936,335C940,322 921,338 920,338C920,336 919,337 918,336C918,335 917,334 917,333C917,332 917,332 916,330C915,327 911,314 916,310C922,305 924,300 929,306Z" style="fill:rgb(124,117,112);fill-opacity:1;"/><path d="M636,344C623,339 632,332 626,315C622,304 591,298 601,291C602,290 606,287 601,276C600,276 584,269 595,268C602,268 600,272 606,275C622,281 620,284 620,288C619,289 629,290 628,295C626,304 636,308 636,310C640,319 639,319 645,328C647,331 649,336 649,336C649,338 647,352 645,352C645,351 643,351 636,344Z" style="fill:rgb(69,59,61);"/><path d="M555,310C546,308 546,312 544,313C542,316 529,316 533,312C538,305 528,309 528,305C526,294 538,305 548,296C550,294 556,295 555,291C552,285 557,287 563,288C577,292 575,300 579,303C584,309 581,310 581,318C581,322 583,321 585,326C587,329 582,336 579,337C577,338 550,325 563,319C570,316 559,313 555,310Z" style="fill:rgb(64,55,56);"/><path d="M345,460C351,469 355,470 361,481C365,492 365,496 374,500C382,503 375,521 363,507C354,496 357,511 357,511C360,530 358,530 362,549C363,553 355,558 365,579C367,585 365,586 378,600C378,601 378,601 388,606C388,607 389,608 389,608C390,608 390,606 391,606C392,609 393,609 393,612C392,612 378,609 373,606C373,605 368,601 363,598C364,596 364,596 364,596C360,590 361,590 360,584C358,570 356,570 357,558C358,546 357,547 356,535C352,491 343,491 350,476C351,475 353,472 343,463C344,461 344,461 344,461C345,460 345,461 345,460Z" style="fill:rgb(127,120,114);fill-opacity:1;"/><path d="M883,281C884,283 884,283 885,285C883,294 886,294 886,301C887,304 886,304 889,306L889,309C888,309 886,309 888,316C885,334 885,334 885,336C883,338 884,338 882,340C879,346 877,345 879,351L878,351C860,359 860,358 852,363C852,361 851,361 852,360C853,356 852,350 855,348C863,342 863,331 868,324C869,324 872,322 873,321L872,319C873,319 874,319 874,318C875,317 875,317 875,316C876,310 876,310 877,305C877,291 874,290 883,281Z" style="fill:rgb(109,101,98);fill-opacity:1;"/><path d="M832,502C842,508 843,504 848,506C868,515 861,533 860,535C858,542 843,549 838,550C839,549 842,539 836,535C830,531 823,536 820,534C814,529 828,521 830,519C836,515 830,508 832,502Z" style="fill:rgb(189,193,185);fill-opacity:0.99;"/><path d="M621,473C615,477 615,477 609,478C606,478 605,487 600,488C589,492 591,495 582,504C578,510 564,509 560,515C558,514 559,513 558,514C549,517 549,512 549,512C549,497 553,495 567,499C580,502 576,481 581,480C587,478 587,478 590,472C594,463 602,474 607,470C614,466 615,466 621,473Z" style="fill:rgb(189,193,185);fill-opacity:0.98;"/><path d="M772,214C775,206 777,206 784,210C787,211 786,212 788,218C788,218 789,218 794,221C798,227 798,227 799,234C799,241 806,247 797,254C789,259 801,278 790,275C781,273 791,290 786,308C785,309 786,322 778,311L777,309C779,307 777,307 778,304C785,287 778,286 781,269C783,264 782,264 784,260C788,252 785,251 788,247C799,234 782,230 780,227C780,226 780,224 776,217C774,215 774,216 772,214Z" style="fill:rgb(63,53,54);"/><path d="M448,281C444,283 444,283 441,286C441,286 426,295 425,295C413,298 415,303 403,305C377,309 377,313 379,314C380,316 407,316 401,318C390,323 389,328 379,321C376,319 372,318 361,326C355,330 363,335 360,336C356,338 351,333 346,337C334,345 333,343 321,350C315,355 313,351 312,351C318,342 320,345 338,335C341,334 343,331 343,330C350,320 389,302 401,297C403,298 402,300 408,299C409,298 410,298 411,298C413,298 415,294 424,292C436,289 433,280 448,281Z" style="fill:rgb(92,83,83);fill-opacity:0.99;"/><path d="M860,249C861,252 860,252 863,253C866,260 868,260 865,267C864,272 865,272 863,276C862,280 867,288 862,290C858,292 855,291 856,298C856,299 855,304 855,304C854,312 854,313 848,316C845,317 843,329 844,331C840,333 840,333 837,337C836,337 829,338 831,343L831,346C824,358 839,352 840,356C845,365 839,366 834,369L834,370C834,369 832,369 832,369C832,368 837,365 838,362C841,355 835,359 827,359C824,358 822,364 819,363C810,361 809,337 816,347C817,348 827,362 829,338C830,330 846,334 838,320C828,306 848,309 851,300C852,295 848,293 854,288C860,283 852,280 857,274C861,270 856,266 858,264C862,257 857,256 860,249Z" style="fill:rgb(132,125,119);"/><path d="M343,463C353,472 351,475 350,476C343,491 352,491 356,535C357,547 358,546 357,558C356,570 358,570 360,584C361,590 360,590 364,596C364,596 364,596 363,598C358,593 357,584 355,581C348,568 347,551 345,544C350,540 351,540 350,534C348,513 347,509 346,507C344,500 344,496 339,499C340,481 340,481 343,463Z" style="fill:rgb(114,96,82);fill-opacity:0.99;"/><path d="M917,111C917,119 916,119 920,126C920,127 920,132 919,135C918,136 916,146 919,151C924,160 915,161 915,165C915,175 913,174 909,178C909,177 908,178 907,175C901,166 899,167 899,166C896,162 897,160 892,159C896,149 895,147 902,147C907,146 900,139 907,137C909,136 914,139 912,130C911,126 909,126 910,124C912,121 910,102 918,107C918,108 918,107 918,109C917,110 917,110 917,111Z" style="fill:rgb(48,38,38);"/><path d="M649,424C650,445 636,448 632,440C622,424 625,444 623,449C615,463 610,455 605,456C592,459 593,462 585,461C579,460 585,474 577,470C571,468 571,469 569,475C561,462 573,465 573,466C583,469 574,447 581,454C587,459 588,460 594,455C603,448 615,452 616,451C625,446 617,433 622,430C632,424 630,395 636,410C637,411 637,418 639,420C641,424 641,424 642,429C643,436 648,425 649,424Z" style="fill:rgb(142,135,128);"/><path d="M677,187C681,199 667,189 662,196C658,202 649,198 640,204C636,208 628,201 606,212C598,217 594,211 589,219C586,225 576,221 572,224C558,237 552,229 545,235C542,237 514,252 506,248C518,242 518,243 530,238C534,236 533,233 545,229C556,226 554,222 573,221C582,220 580,215 589,213C593,212 593,211 637,199C652,196 651,193 666,191C672,190 672,188 677,187Z" style="fill:rgb(116,108,104);fill-opacity:0.99;"/><path d="M882,245C884,255 883,255 883,276C882,276 866,292 870,275C872,267 872,267 867,253C864,242 875,243 874,238C873,224 869,225 870,212C870,207 871,206 880,204C884,204 876,217 878,224C878,226 879,228 879,230C880,237 876,240 882,245Z" style="fill:rgb(189,193,185);fill-opacity:0.99;"/><path d="M903,57C908,54 919,51 921,51C926,49 927,56 929,59C931,63 935,61 935,61C941,63 941,65 946,63C960,60 951,75 947,75C939,75 941,78 934,81C925,85 930,90 927,93C926,94 925,95 916,86L915,85C923,84 917,80 918,76C921,69 921,69 921,68C928,67 926,65 924,59C923,54 918,60 917,59C910,56 909,62 903,57Z" style="fill:rgb(95,74,64);"/><path d="M409,533C417,529 418,529 423,535C424,535 424,535 436,542C438,544 450,543 452,543C462,543 444,545 443,550C439,561 458,560 452,566C442,566 442,566 433,561C425,555 424,557 416,551C410,547 411,541 409,533Z" style="fill:rgb(110,91,79);fill-opacity:1;"/><path d="M573,524C575,525 582,527 588,532C601,545 600,547 598,558C595,558 596,558 590,560C587,562 584,555 580,554C571,553 571,551 570,543C569,533 574,534 573,524Z" style="fill:rgb(189,193,185);fill-opacity:0.99;"/><path d="M664,396C661,388 657,389 654,397C650,386 668,387 662,364C660,353 667,354 669,350C670,346 668,345 673,342C683,336 678,350 680,352C690,357 677,368 674,366C665,362 671,373 672,373C681,380 672,382 664,396Z" style="fill:rgb(129,122,116);"/><path d="M822,405C833,412 805,417 815,429C816,431 820,431 821,438C821,443 802,450 817,463C824,470 820,471 818,481C817,483 812,486 811,491C808,499 808,501 799,502C789,504 804,520 807,535C808,541 823,543 829,550C823,549 823,549 818,548C813,542 811,545 806,539C801,527 792,515 794,503C796,496 804,502 806,494C808,485 824,475 813,466C805,459 809,450 810,446C811,445 811,445 811,443C815,442 816,443 818,439C822,432 817,433 810,429C806,427 813,417 814,416C820,412 820,412 822,405Z" style="fill:rgb(144,137,130);fill-opacity:1;"/><path d="M743,222C738,213 735,211 727,212C722,212 722,223 718,216C711,200 725,191 731,194C738,198 738,197 739,197C746,203 753,201 748,206C740,215 757,227 748,223C746,222 746,221 743,222Z" style="fill:rgb(45,35,34);"/><path d="M810,446C809,450 805,459 813,466C824,475 808,485 806,494C804,502 796,496 794,503C792,515 801,527 806,539C805,539 805,541 804,541C799,539 791,514 791,511C792,506 784,487 794,488C803,489 802,486 808,481C820,472 808,467 804,463C800,460 804,456 804,454C804,449 805,448 810,446Z" style="fill:rgb(128,121,115);"/><path d="M994,337C985,340 985,343 975,340C977,334 980,335 981,320C982,315 1005,307 1003,328C1002,334 999,333 994,337Z" style="fill:rgb(98,75,64);fill-opacity:1;"/><path d="M122,481C132,473 130,468 138,468C147,468 131,476 130,480C128,489 140,478 143,479C151,482 138,492 134,501C129,511 136,510 141,509C153,505 138,519 136,528C128,530 128,530 120,530C125,525 127,528 132,523C133,522 139,517 139,513C138,511 122,515 132,500C135,494 127,490 127,488C128,483 126,483 122,481Z" style="fill:rgb(47,37,36);fill-opacity:1;"/><path d="M470,309C474,311 476,308 480,312C484,315 485,313 489,312C493,312 494,320 485,317C473,314 488,334 487,335C482,340 475,332 471,341C467,351 457,333 465,331C468,330 468,323 472,318C473,317 470,311 469,310L470,309Z" style="fill:rgb(90,80,81);"/><path d="M754,398C762,396 777,400 774,412C773,412 763,421 762,422C757,423 757,422 755,422C753,415 753,415 746,412C745,403 749,400 754,398Z" style="fill:rgb(40,30,30);fill-opacity:1;"/><path d="M664,396C664,397 664,397 664,398C661,405 661,405 662,413C663,429 670,408 676,396C683,391 682,400 684,405C685,406 688,413 683,421C681,415 684,391 676,400C673,404 675,418 669,422C663,426 673,438 665,440C662,440 663,432 663,432C663,425 663,425 661,420C661,418 660,417 659,416C658,412 660,408 657,410C657,411 658,411 656,414C655,418 654,417 650,419L650,419C650,417 650,417 651,415C656,407 652,402 654,397C657,389 661,388 664,396Z" style="fill:rgb(145,138,131);"/><path d="M847,333C850,329 859,319 860,319C865,308 856,304 865,297C868,295 872,284 872,290C872,314 865,319 863,320C849,330 853,349 843,349C833,348 846,334 847,333Z" style="fill:rgb(189,193,185);"/><path d="M774,359C772,355 785,318 791,323C801,330 783,341 782,355C780,377 776,377 775,376C771,374 775,372 772,368C772,367 772,366 772,364C774,362 774,362 774,359Z" style="fill:rgb(60,51,53);"/><path d="M381,424C374,420 381,412 373,412C372,412 364,403 386,401C389,400 388,395 391,398C396,402 400,405 397,407C391,410 391,410 390,416C390,416 390,416 385,421C383,423 383,422 381,424Z" style="fill:rgb(34,24,23);"/><path d="M966,171C965,176 966,177 965,177C957,188 967,190 968,195C968,196 968,197 968,199L968,201C968,202 968,202 968,203C968,204 968,204 968,205C967,205 967,206 966,206C965,211 965,211 964,211C964,212 963,213 962,213C961,214 958,214 952,206C957,200 950,194 957,186C964,177 958,173 966,171Z" style="fill:rgb(157,153,145);fill-opacity:0.98;"/><path d="M964,336C955,333 953,332 952,332C948,330 953,322 941,323C934,323 943,308 947,316C952,323 953,318 957,317C958,316 975,310 964,336Z" style="fill:rgb(115,96,82);"/><path d="M191,426C190,431 190,431 174,439C173,439 173,437 172,437C172,437 172,437 171,440C167,443 164,441 163,446C162,446 144,453 142,453C143,450 143,450 145,448C147,445 151,444 180,428C180,428 190,426 191,426Z" style="fill:rgb(104,95,94);fill-opacity:0.99;"/><path d="M824,246C831,251 835,275 821,258C819,255 806,261 811,251C813,246 814,246 812,241C812,240 814,232 824,244C824,245 824,244 824,246Z" style="fill:rgb(68,59,60);"/><path d="M982,314C984,313 984,313 987,312C1002,306 1001,316 1009,319C1015,321 1006,325 1008,330C1008,332 1006,331 1006,332C1006,333 1007,333 1010,335C1002,338 1002,337 994,337C999,333 1002,334 1003,328C1005,307 982,315 981,320C980,335 977,334 975,340L973,340C975,335 975,335 977,331C980,325 978,324 978,317C980,315 980,316 982,314Z" style="fill:rgb(114,97,86);fill-opacity:1;"/><path d="M339,499C344,496 344,500 346,507C347,509 348,513 350,534C351,540 350,540 345,544C341,522 341,522 339,499Z" style="fill:rgb(98,75,64);fill-opacity:1;"/><path d="M126,468C126,470 125,475 123,477C122,479 121,478 120,480C114,483 114,482 108,485C107,485 108,485 106,485C105,485 106,486 107,488C102,491 96,492 92,495C90,495 85,497 82,495C91,489 90,488 101,484C115,479 111,472 126,468Z" style="fill:rgb(85,75,75);fill-opacity:0.99;"/><path d="M792,403C794,402 799,401 807,404C815,408 789,414 799,431C792,435 789,424 788,422C787,418 781,420 779,418C775,414 784,415 784,414C785,413 785,412 786,411C788,410 794,413 796,412C813,406 794,404 792,403Z" style="fill:rgb(73,63,64);"/><path d="M432,468C448,466 450,463 451,467C452,473 444,477 444,478C440,482 444,484 444,486C444,492 434,480 431,478C429,477 429,477 428,476C428,475 430,475 430,474C431,473 426,470 432,468Z" style="fill:rgb(63,53,55);"/><path d="M854,163C854,164 854,164 854,164L854,165C852,167 852,167 852,167C851,167 847,156 848,166C850,177 840,172 839,178C836,186 833,177 829,179C823,180 826,188 826,188C828,194 823,190 818,190C815,189 815,192 810,191C823,186 823,182 822,180C822,171 828,173 829,175C833,178 841,172 842,172C851,168 839,162 845,159C851,156 852,157 854,163Z" style="fill:rgb(70,60,61);"/><path d="M588,414C601,405 591,431 585,437C582,440 581,446 577,447C563,451 581,437 581,434C582,423 583,423 588,414Z" style="fill:rgb(99,91,89);"/><path d="M956,167C958,174 953,173 952,182C951,185 948,193 947,194C947,194 945,193 940,192C938,187 938,187 938,186C939,181 938,181 939,175C948,171 950,174 956,167Z" style="fill:rgb(164,161,153);fill-opacity:1;"/><path d="M713,383C708,371 705,367 713,362C714,362 718,338 722,348C724,353 717,376 716,379C715,380 716,381 715,382C715,383 714,382 713,383Z" style="fill:rgb(144,137,130);"/><path d="M746,225C747,225 749,228 752,229C748,234 746,227 741,230C740,230 733,233 733,236C733,241 736,241 734,246C729,238 729,237 732,229C732,227 720,207 737,218C740,219 738,224 746,225Z" style="fill:rgb(86,76,77);"/><path d="M0,564L0,560L1,559C6,555 6,554 3,550C13,538 18,535 19,534C19,547 -2,560 11,572C3,573 3,571 0,564Z" style="fill:rgb(39,29,28);fill-opacity:1;"/><path d="M771,125C772,126 776,135 767,141C765,143 764,143 766,145C763,147 764,149 760,150C757,150 754,156 750,157C749,157 749,155 748,155C754,149 755,150 758,143C759,140 763,138 764,133C766,128 766,128 771,125Z" style="fill:rgb(88,79,79);fill-opacity:0.99;"/><path d="M893,311C894,308 894,307 895,306C905,304 908,329 900,327C888,323 892,315 893,311Z" style="fill:rgb(189,193,185);"/><path d="M928,4C929,9 929,9 928,13C927,14 927,15 927,16C924,20 919,40 919,43C908,32 925,9 928,4Z" style="fill:rgb(160,156,148);fill-opacity:0.98;"/><path d="M929,307C936,324 939,298 945,302C950,305 950,306 956,306C963,305 967,313 968,314C968,314 967,316 965,314C962,310 954,310 953,310C948,311 945,304 942,309C936,319 928,321 927,309C927,308 929,308 929,307Z" style="fill:rgb(144,137,131);"/><path d="M662,447C656,452 656,453 648,454C649,443 653,444 654,432C655,426 658,424 659,429C660,435 656,435 661,443C662,445 661,445 662,447Z" style="fill:rgb(189,193,185);fill-opacity:0.97;"/><path d="M759,307C759,303 759,304 759,301C760,292 759,292 760,292C761,285 767,300 768,300C779,310 761,317 761,310C761,308 760,309 759,307Z" style="fill:rgb(144,137,130);"/><path d="M959,85C960,87 967,98 963,108C946,117 956,99 957,91C958,88 958,88 959,85Z" style="fill:rgb(112,99,94);fill-opacity:1;"/><path d="M903,196C902,196 901,197 896,200C890,195 889,199 869,202C869,202 868,202 865,208C865,204 864,204 864,204C864,195 897,194 897,194C900,194 900,195 903,196Z" style="fill:rgb(160,155,147);fill-opacity:1;"/><path d="M936,335C935,338 935,338 934,341C929,342 930,343 917,343C917,342 918,341 918,336C919,337 920,336 920,338C921,338 940,322 936,335Z" style="fill:rgb(152,147,139);fill-opacity:0.99;"/><path d="M982,314C982,313 981,313 981,312C981,312 992,297 1003,310C1010,318 1011,317 1012,317C1016,323 1009,329 1008,330C1006,325 1015,321 1009,319C1001,316 1002,306 987,312C984,313 984,313 982,314Z" style="fill:rgb(137,130,124);"/><path d="M865,215L867,216C867,227 874,230 865,234C860,235 864,240 860,247C859,244 858,244 859,241C863,230 854,218 863,225C868,229 861,221 865,215Z" style="fill:rgb(145,138,131);"/><path d="M82,495C85,497 90,495 92,495C89,499 88,497 84,500C77,505 76,502 69,507C63,512 61,508 61,508C71,498 80,495 82,495Z" style="fill:rgb(62,52,53);fill-opacity:1;"/><path d="M969,317C976,319 976,318 977,319C977,320 975,327 976,330C976,330 977,330 977,331C975,335 975,335 973,340L966,339C967,333 970,332 972,327C974,321 967,322 969,317Z" style="fill:rgb(143,136,129);fill-opacity:1;"/><path d="M914,84C913,83 913,82 901,83C897,84 899,94 894,95C893,88 896,87 894,80C893,74 898,76 898,76C902,74 901,77 904,80C906,83 915,78 914,84Z" style="fill:rgb(72,62,63);"/><path d="M928,121C931,126 932,127 930,139C928,146 935,150 938,143C938,150 934,155 929,150C927,142 925,142 926,137C929,129 926,129 928,121Z" style="fill:rgb(128,120,114);"/><path d="M461,288C460,288 453,286 456,284C465,279 465,277 476,277C488,278 474,281 461,288Z" style="fill:rgb(48,38,37);"/><path d="M929,306C924,300 922,305 916,310C911,314 915,327 916,330C910,326 910,307 914,306C919,304 918,303 923,300C925,297 928,300 929,306Z" style="fill:rgb(144,137,130);"/><path d="M576,561C577,560 576,559 577,559C585,557 581,563 584,566C585,567 585,567 587,568C582,570 580,568 569,568C571,565 570,565 574,563C574,562 575,561 576,561Z" style="fill:rgb(121,113,109);fill-opacity:0.99;"/><path d="M967,38C968,45 980,43 974,47C967,51 957,44 956,43C955,43 955,43 953,42C960,41 966,39 967,38Z" style="fill:rgb(88,76,75);fill-opacity:0.99;"/><path d="M646,455C645,456 644,460 636,465C633,463 633,463 632,463C625,462 629,459 629,458C639,456 639,453 646,455Z" style="fill:rgb(189,193,185);fill-opacity:0.97;"/><path d="M814,416C813,417 806,427 810,429C817,433 822,432 818,439C816,443 815,442 811,443C812,443 812,442 812,442C825,436 806,431 805,430C804,427 807,414 814,416Z" style="fill:rgb(128,121,115);"/><path d="M855,304C855,305 860,312 854,317C847,322 851,325 844,331C843,329 845,317 848,316C854,313 854,312 855,304Z" style="fill:rgb(145,138,131);"/><path d="M683,433C679,437 679,436 675,440C671,438 673,437 674,432C674,431 676,418 681,430C682,432 682,432 683,433Z" style="fill:rgb(189,193,185);fill-opacity:0.95;"/><path d="M942,154C946,155 945,156 946,159C947,163 947,167 939,167C934,168 942,155 942,154Z" style="fill:rgb(144,137,130);"/><path d="M870,160C868,163 868,162 864,162C861,161 862,165 858,166C860,160 852,150 857,153C862,157 863,154 869,159C869,159 869,159 870,160Z" style="fill:rgb(76,64,63);"/><path d="M470,309L469,310C455,320 455,311 456,310C460,305 467,308 470,309Z" style="fill:rgb(86,76,77);"/><path d="M885,336C885,344 888,348 888,348C885,349 881,350 880,350L879,351C877,345 879,346 882,340C884,338 883,338 885,336Z" style="fill:rgb(123,115,110);fill-opacity:0.98;"/><path d="M820,383C813,388 813,390 818,399C818,399 812,399 811,394C806,382 819,383 820,383Z" style="fill:rgb(144,137,130);"/><path d="M827,482C827,486 826,486 828,495C813,493 823,481 827,482Z" style="fill:rgb(189,193,185);fill-opacity:0.98;"/><path d="M389,440C390,440 391,440 391,441C406,446 391,447 391,447C387,447 380,442 389,440Z" style="fill:rgb(159,154,146);"/><path d="M826,446C827,450 828,455 828,455C824,462 814,450 826,446Z" style="fill:rgb(190,194,186);fill-opacity:0.96;"/><path d="M556,402C555,402 554,402 553,403C539,397 565,391 561,396C559,399 558,398 556,402Z" style="fill:rgb(97,92,89);"/><path d="M772,214C774,216 774,215 776,217C773,223 770,224 768,218C765,214 767,212 772,214Z" style="fill:rgb(86,76,77);"/><path d="M392,432C383,436 383,438 374,435C375,434 378,430 392,432Z" style="fill:rgb(103,94,92);"/><path d="M910,293C908,294 903,305 901,295C901,295 903,286 910,293Z" style="fill:rgb(145,138,131);"/><path d="M757,394C758,394 768,386 771,397C771,398 771,397 772,398C771,398 760,395 757,394Z" style="fill:rgb(73,63,64);"/><path d="M45,518C44,521 42,529 32,525C39,521 38,521 45,518Z" style="fill:rgb(34,24,23);fill-opacity:0.99;"/><path d="M825,386C828,385 829,384 830,387C830,387 831,388 830,390C830,391 819,399 825,386Z" style="fill:rgb(190,194,186);"/><path d="M411,564C416,565 416,565 421,568C413,572 411,570 411,564Z" style="fill:rgb(171,171,163);fill-opacity:0.97;"/><path d="M943,151C946,150 953,151 946,159C945,156 946,155 942,154C943,153 943,153 943,151Z" style="fill:rgb(128,120,114);"/><path d="M939,175C938,181 939,181 938,186C937,186 930,177 939,175Z" style="fill:rgb(144,137,129);"/><path d="M978,317C978,324 980,325 977,331C977,330 976,330 976,330C975,327 977,320 977,319C977,318 978,318 978,317Z" style="fill:rgb(128,121,115);"/><path d="M936,335C941,337 942,339 943,340C939,340 940,340 939,340C936,341 937,340 934,341C935,338 935,338 936,335Z" style="fill:rgb(111,100,95);fill-opacity:0.97;"/><path d="M29,527C29,527 28,530 27,532C25,535 24,535 21,533C28,526 29,527 29,527Z" style="fill:rgb(33,23,22);fill-opacity:1;"/><path d="M3,550C6,554 6,555 1,559C2,555 1,555 3,550Z" style="fill:rgb(95,73,63);fill-opacity:0.99;"/><path d="M738,331C740,333 741,333 739,338C736,334 737,334 738,331Z" style="fill:rgb(112,103,100);"/><path d="M453,404C451,409 448,405 450,403C451,401 451,402 453,404Z" style="fill:rgb(59,50,52);"/><path d="M837,337C836,337 834,340 831,343C829,338 836,337 837,337Z" style="fill:rgb(145,138,131);"/><path d="M834,370L834,369C834,370 836,374 830,377C831,373 831,373 834,370Z" style="fill:rgb(144,137,130);"/><path d="M456,425C452,428 452,428 448,428C451,425 451,426 456,425Z" style="fill:rgb(72,62,63);"/><path d="M889,309C890,316 888,315 888,316C886,309 888,309 889,309Z" style="fill:rgb(144,137,130);"/><path d="M860,248C862,250 862,250 863,253C860,252 861,252 860,249C860,249 860,248 860,248Z" style="fill:rgb(144,137,130);"/><path d="M886,301C887,302 889,301 889,306C886,304 887,304 886,301Z" style="fill:rgb(142,135,128);"/><path d="M749,304C750,307 751,307 749,310C748,306 749,306 749,304Z" style="fill:rgb(115,106,103);"/><path d="M577,561C580,562 583,562 580,565C579,566 577,561 577,561Z" style="fill:rgb(129,122,116);"/><path d="M735,324C736,326 735,326 735,328C733,326 733,326 735,324Z" style="fill:rgb(91,82,82);"/><path d="M174,439C172,439 172,439 171,440C172,437 172,437 172,437C173,437 173,439 174,439Z" style="fill:rgb(93,86,85);"/><path d="M774,359C774,362 774,362 772,364C773,362 773,362 774,359Z" style="fill:rgb(74,64,65);"/><path d="M108,485C108,486 107,487 107,488C106,486 105,485 106,485C108,485 107,485 108,485Z" style="fill:rgb(55,46,47);"/><path d="M88,508C87,507 87,507 87,507C87,506 91,507 88,508Z" style="fill:rgb(32,22,21);"/><path d="M430,481C432,482 432,482 433,484C431,483 431,483 430,481Z" style="fill:rgb(101,91,91);"/><path d="M767,141C766,143 766,143 766,145C764,143 765,143 767,141Z" style="fill:rgb(69,59,61);"/><path d="M650,419L650,419C650,420 649,421 648,421C648,420 649,420 650,419Z" style="fill:rgb(130,123,117);"/><path d="M762,267C763,268 763,269 763,271C761,269 762,269 762,267Z" style="fill:rgb(108,99,97);"/><path d="M875,316C875,317 875,317 874,318C874,317 874,317 875,316Z" style="fill:rgb(144,137,130);"/><path d="M966,64L966,63C966,65 965,67 965,68C965,66 965,65 966,64Z" style="fill:rgb(116,112,107);fill-opacity:0.21;"/><path d="M969,62C967,62 967,63 966,63L966,64C967,62 967,62 969,62Z" style="fill:rgb(112,107,101);fill-opacity:0.22;"/><path d="M883,242C882,243 882,244 882,245C882,244 882,243 883,242Z" style="fill:rgb(126,126,120);fill-opacity:0.19;"/><path d="M756,286C755,287 755,288 754,288C755,288 755,287 756,286Z" style="fill:rgb(101,92,91);"/><path d="M264,469C263,469 262,470 261,470C263,469 262,469 264,469Z" style="fill:rgb(118,112,106);fill-opacity:0.25;"/><path d="M287,453C286,453 285,454 285,455C285,455 286,454 287,453Z" style="fill:rgb(136,135,128);fill-opacity:0.22;"/><path d="M964,211C963,213 964,212 962,213C963,213 964,212 964,211Z" style="fill:rgb(127,123,117);fill-opacity:0.2;"/><path d="M293,447C292,447 291,448 291,449C292,448 292,448 293,447Z" style="fill:rgb(126,121,114);fill-opacity:0.24;"/><path d="M290,450C289,450 288,451 288,452C289,451 290,450 290,450Z" style="fill:rgb(133,128,122);fill-opacity:0.23;"/><path d="M968,195C968,197 968,197 968,199C968,197 968,196 968,195Z" style="fill:rgb(118,112,106);fill-opacity:0.4;"/><path d="M928,13C927,14 928,14 927,16C927,15 927,14 928,13Z" style="fill:rgb(122,118,112);fill-opacity:0.21;"/><path d="M303,440C302,440 301,441 301,442C301,441 302,441 303,440Z" style="fill:rgb(115,108,103);fill-opacity:0.29;"/><path d="M306,437C305,437 304,438 304,439C305,437 304,438 306,437Z" style="fill:rgb(110,104,99);fill-opacity:0.3;"/><path d="M825,439C825,440 825,441 826,441C825,440 825,440 825,439Z" style="fill:rgb(131,127,121);fill-opacity:0.24;"/><path d="M330,417C330,418 329,418 328,418C329,418 330,418 330,417Z" style="fill:rgb(113,107,101);fill-opacity:0.25;"/><path d="M251,474C251,475 250,475 249,475C250,475 251,475 251,474Z" style="fill:rgb(114,107,102);fill-opacity:0.26;"/><path d="M893,349C894,348 894,348 895,348C894,348 893,348 893,349Z" style="fill:rgb(123,117,111);fill-opacity:0.29;"/><path d="M968,201C968,202 968,202 968,203C968,202 968,202 968,201Z" style="fill:rgb(122,116,109);fill-opacity:0.34;"/><path d="M989,50C988,50 988,51 988,52C988,51 988,50 989,50Z" style="fill:rgb(136,136,130);fill-opacity:0.18;"/><path d="M920,193C921,192 921,192 922,192C921,192 920,192 920,193Z" style="fill:rgb(122,116,110);fill-opacity:0.3;"/><path d="M283,457C282,457 281,457 281,458C281,457 282,457 283,457Z" style="fill:rgb(126,122,116);fill-opacity:0.25;"/><path d="M968,205C967,205 967,206 966,206C967,206 967,205 968,205Z" style="fill:rgb(116,111,104);fill-opacity:0.26;"/><path d="M186,506C186,507 185,507 184,507C185,507 186,507 186,506Z" style="fill:rgb(105,99,94);fill-opacity:0.31;"/><path d="M849,367C848,367 848,368 847,368C848,368 848,367 849,367Z" style="fill:rgb(111,106,100);fill-opacity:0.24;"/><path d="M709,427C709,428 708,428 708,429C708,428 709,428 709,427Z" style="fill:rgb(114,109,103);fill-opacity:0.27;"/><path d="M712,425C712,426 711,426 711,427C711,426 712,426 712,425Z" style="fill:rgb(106,101,96);fill-opacity:0.29;"/><path d="M273,460C273,461 272,461 272,462C272,461 273,461 273,460Z" style="fill:rgb(106,100,95);fill-opacity:0.27;"/><path d="M722,420C722,421 721,421 721,422C721,421 722,421 722,420Z" style="fill:rgb(103,97,93);fill-opacity:0.35;"/><path d="M879,351L880,350C880,351 879,351 878,351L879,351Z" style="fill:rgb(106,98,95);fill-opacity:0.35;"/><path d="M220,482C220,483 220,483 219,483L219,484C219,483 220,483 220,482Z" style="fill:rgb(88,78,78);fill-opacity:0.34;"/><path d="M219,484L219,483C219,484 218,484 218,485C218,484 218,484 219,484Z" style="fill:rgb(86,80,78);fill-opacity:0.34;"/><path d="M889,154C889,155 889,155 889,156L889,155L889,154Z" style="fill:rgb(65,56,57);"/><path d="M200,500C199,500 199,501 198,501C199,501 199,500 200,500Z" style="fill:rgb(84,80,77);fill-opacity:0.33;"/><path d="M734,415L736,415C735,415 735,415 734,415Z" style="fill:rgb(97,92,87);fill-opacity:0.22;"/></g></svg>