<?xml version="1.0" encoding="UTF-8" standalone="no"?><!DOCTYPE svg PUBLIC "-//W3C//DTD SVG 1.1//EN" "http://www.w3.org/Graphics/SVG/1.1/DTD/svg11.dtd"><svg width="100%" height="100%" viewBox="0 0 480 48" version="1.1" xmlns="http://www.w3.org/2000/svg" xmlns:xlink="http://www.w3.org/1999/xlink" xml:space="preserve" xmlns:serif="http://www.serif.com/" style="fill-rule:evenodd;clip-rule:evenodd;stroke-linecap:round;stroke-linejoin:round;stroke-miterlimit:1.5;"><path d="M161.483,12.409c0.287,-0.166 0.679,-0.264 1.174,-0.243c0.766,0.033 1.899,0.366 3.232,0.892c2.437,0.961 5.626,2.555 8.428,3.714c1.753,0.725 3.34,1.287 4.452,1.35c24.041,1.372 18.317,1.474 22.02,1.432c1.376,-0.016 3.118,0.554 5.017,1.446c2.647,1.244 5.64,3.105 8.373,4.594c1.739,0.947 3.364,1.744 4.711,2.094c0.717,0.186 1.332,0.26 1.809,0.069c1.257,-0.505 9.656,-3.043 15.981,-4.068c2.857,-0.463 5.314,-0.589 6.603,-0.174c1.03,0.332 7.777,1.621 10.673,1.728c1.519,0.056 3.641,-1.004 5.672,-2.029c1.331,-0.672 2.621,-1.349 3.695,-1.784c0.832,-0.337 1.559,-0.529 2.11,-0.531c0.331,-0.001 0.792,0.106 1.361,0.329c0.667,0.261 1.535,0.685 2.574,1.179c3.828,1.82 10.113,4.661 17.305,3.135c6.852,-1.454 10.244,-0.486 13.107,-0.02c2.602,0.424 4.71,0.344 9.013,-2.827c7.449,-5.489 18.757,-10.107 24.044,-14.51c1.174,-0.978 1.739,-1.543 3.154,-2.795c1.589,-1.407 3.518,-1.723 7.016,-0.503c1.173,0.409 37.567,10.925 43.168,13.014c2.211,0.825 7.831,1.427 14.745,1.92c16.446,1.174 40.088,1.64 43.602,2.325c5.306,1.034 19.959,6.831 24.506,8.494c6.515,2.383 8.74,3.962 9.498,4.803c0.415,0.461 0.525,0.815 0.563,1.035l0.003,0.438l-0.005,0.015l0.002,9.833c0,0.236 -0.094,0.462 -0.26,0.629c-0.167,0.167 -0.393,0.26 -0.629,0.26l-476.759,0.019c-0.491,0 -0.889,-0.398 -0.889,-0.889l-0.002,-17.864l0,-0.016c0,0 -0.151,-1.702 3.19,-2.914c5.263,-1.908 7.607,-3.201 9.085,-3.903c1.169,-0.555 1.887,-0.773 2.864,-0.715c3.449,0.204 13.222,-2.312 16.362,-3.927c0.375,-0.193 0.845,-0.238 1.403,-0.069c0.755,0.229 1.8,0.947 3.03,1.932c2.189,1.755 5.086,4.381 8.18,5.931c1.906,0.955 3.884,1.505 5.803,1.054c1.605,-0.377 4.756,-0.395 8.462,-0.413c5.346,-0.026 11.894,-0.067 16.421,-1.41c3.173,-0.941 3.667,-1.312 3.84,-1.427l0.309,-0.149l0.204,-0.038l0.231,0.005c0.145,0.018 0.494,0.134 1.896,0.248c5.157,0.419 18.723,-1.225 27.586,-3.043c3.672,-0.753 6.52,-1.503 7.523,-2.18c1.067,-0.72 14.525,-9.452 21.353,-12.755c1.258,-0.609 2.305,-1.036 3.028,-1.219c0.423,-0.107 0.767,-0.134 1.017,-0.107c0.244,0.027 0.846,0.246 1.686,0.651c2.794,1.348 8.922,4.77 13.351,6.682c1.358,0.587 2.547,1.03 3.41,1.206c0.276,0.056 0.637,0.06 0.699,0.06Zm316.714,25.305c0.236,0 0.462,-0.094 0.629,-0.26c0.05,-0.05 0.094,-0.106 0.13,-0.166l-0.759,0.426Zm0.877,-0.745l-0.093,0.274c0.045,-0.085 0.077,-0.178 0.093,-0.274Z" style="fill:var(--bg-offwhite);stroke:#000;stroke-width:0px;"/></svg>